<svg width="428" height="560" xmlns="http://www.w3.org/2000/svg" xmlns:xlink="http://www.w3.org/1999/xlink" overflow="hidden"><defs><clipPath id="clip0"><path d="M700 82 1128 82 1128 642 700 642Z" fill-rule="evenodd" clip-rule="evenodd"/></clipPath><linearGradient x1="850" y1="133.5" x2="850" y2="173.5" gradientUnits="userSpaceOnUse" spreadMethod="reflect" id="fill1"><stop offset="0" stop-color="#D2D2D2"/><stop offset="0.5" stop-color="#C8C8C8"/><stop offset="1" stop-color="#C0C0C0"/></linearGradient><linearGradient x1="850" y1="83.5001" x2="850" y2="123.5" gradientUnits="userSpaceOnUse" spreadMethod="reflect" id="fill2"><stop offset="0" stop-color="#D2D2D2"/><stop offset="0.5" stop-color="#C8C8C8"/><stop offset="1" stop-color="#C0C0C0"/></linearGradient></defs><g clip-path="url(#clip0)" transform="translate(-700 -82)"><path d="M902.5 332.167C902.5 328.485 905.485 325.5 909.167 325.5L991.833 325.5C995.515 325.5 998.5 328.485 998.5 332.167L998.5 358.833C998.5 362.515 995.515 365.5 991.833 365.5L909.167 365.5C905.485 365.5 902.5 362.515 902.5 358.833Z" stroke="#A5A5A5" stroke-miterlimit="8" fill="#EDEDED" fill-rule="evenodd"/><text font-family="Cambria Math,Cambria Math_MSFontService,sans-serif" font-weight="400" font-size="32" transform="translate(913.79 354)">𝑋<tspan font-size="23" x="17.32" y="7">𝑓𝑎𝑘𝑒</tspan></text><path d="M700.5 332.167C700.5 328.485 703.485 325.5 707.167 325.5L790.833 325.5C794.515 325.5 797.5 328.485 797.5 332.167L797.5 358.833C797.5 362.515 794.515 365.5 790.833 365.5L707.167 365.5C703.485 365.5 700.5 362.515 700.5 358.833Z" stroke="#A5A5A5" stroke-miterlimit="8" fill="#EDEDED" fill-rule="evenodd"/><text font-family="Cambria Math,Cambria Math_MSFontService,sans-serif" font-weight="400" font-size="32" transform="translate(715.823 356)">𝑋<tspan font-size="23" x="19.26" y="6">𝑟𝑒𝑎𝑙</tspan></text><path d="M976.5 527.167C976.5 523.485 979.485 520.5 983.167 520.5L1120.83 520.5C1124.52 520.5 1127.5 523.485 1127.5 527.167L1127.5 553.833C1127.5 557.515 1124.52 560.5 1120.83 560.5L983.167 560.5C979.485 560.5 976.5 557.515 976.5 553.833Z" stroke="#A5A5A5" stroke-miterlimit="8" fill="#EDEDED" fill-rule="evenodd"/><text font-family="Cambria Math,Cambria Math_MSFontService,sans-serif" font-weight="400" font-size="32" transform="translate(987.201 551)">𝑍<tspan x="19.78" y="0"> </tspan></text><path d="M1105.14 526.897C1108.19 527.699 1110.52 529.431 1112.15 532.092 1113.78 534.754 1114.6 537.964 1114.6 541.725 1114.6 545.496 1113.78 548.707 1112.16 551.358 1110.53 554.009 1108.2 555.735 1105.14 556.537L1104.77 555.334C1107.17 554.532 1108.96 552.949 1110.14 550.584 1111.31 548.22 1111.89 545.214 1111.89 541.569 1111.89 538.048 1111.31 535.123 1110.14 532.795 1108.98 530.467 1107.17 528.902 1104.72 528.1ZM1026.25 526.897 1026.67 528.1C1024.23 528.902 1022.43 530.467 1021.25 532.795 1020.08 535.123 1019.5 538.048 1019.5 541.569 1019.5 545.214 1020.08 548.22 1021.25 550.584 1022.43 552.949 1024.22 554.532 1026.62 555.334L1026.25 556.537C1023.19 555.735 1020.86 554.009 1019.23 551.358 1017.61 548.707 1016.79 545.496 1016.79 541.725 1016.79 537.964 1017.61 534.754 1019.24 532.092 1020.87 529.431 1023.21 527.699 1026.25 526.897Z" fill-rule="evenodd"/><text font-family="Cambria Math,Cambria Math_MSFontService,sans-serif" font-weight="400" font-size="32" transform="translate(1027.26 551)">𝑛𝑜𝑖𝑠𝑒</text><path d="M774.5 527.167C774.5 523.485 777.485 520.5 781.167 520.5L918.833 520.5C922.515 520.5 925.5 523.485 925.5 527.167L925.5 553.833C925.5 557.515 922.515 560.5 918.833 560.5L781.167 560.5C777.485 560.5 774.5 557.515 774.5 553.833Z" stroke="#A5A5A5" stroke-miterlimit="8" fill="#EDEDED" fill-rule="evenodd"/><text font-family="Cambria Math,Cambria Math_MSFontService,sans-serif" font-weight="400" font-size="32" transform="translate(786.974 551)">𝐶<tspan x="20.5734" y="0"> </tspan></text><path d="M901.189 526.897C904.231 527.699 906.567 529.431 908.197 532.092 909.827 534.754 910.642 537.964 910.642 541.725 910.642 545.496 909.83 548.707 908.205 551.358 906.58 554.009 904.241 555.735 901.189 556.537L900.814 555.334C903.221 554.532 905.01 552.949 906.182 550.584 907.353 548.22 907.939 545.214 907.939 541.569 907.939 538.048 907.356 535.123 906.189 532.795 905.023 530.467 903.215 528.902 900.767 528.1ZM826.813 526.897 827.234 528.1C824.797 528.902 822.992 530.467 821.82 532.795 820.649 535.123 820.063 538.048 820.063 541.569 820.063 545.214 820.649 548.22 821.82 550.584 822.992 552.949 824.781 554.532 827.188 555.334L826.813 556.537C823.761 555.735 821.422 554.009 819.797 551.358 818.172 548.707 817.359 545.496 817.359 541.725 817.359 537.964 818.175 534.754 819.805 532.092 821.435 529.431 823.771 527.699 826.813 526.897Z" fill-rule="evenodd"/><text font-family="Cambria Math,Cambria Math_MSFontService,sans-serif" font-weight="400" font-size="32" transform="translate(827.827 551)">𝑙𝑎𝑏𝑒𝑙</text><path d="M1028.5 412.5 1013 474.5 888 474.5 872.5 412.5Z" stroke="#78A7FF" stroke-width="13" stroke-linecap="round" stroke-linejoin="round" stroke-miterlimit="10" fill="#78A7FF" fill-rule="evenodd"/><text font-family="Abadi,Abadi_MSFontService,sans-serif" font-weight="400" font-size="43" transform="translate(937.029 457)">G</text><path d="M927.5 216.5 912 278.5 787 278.5 771.5 216.5Z" stroke="#A9D18E" stroke-width="13" stroke-linecap="round" stroke-linejoin="round" stroke-miterlimit="10" fill="#A9D18E" fill-rule="evenodd"/><text font-family="Abadi,Abadi_MSFontService,sans-serif" font-weight="400" font-size="43" transform="translate(834.822 262)">D</text><path d="M0 0 0.000104987 241.597" stroke="#000000" stroke-width="3" stroke-miterlimit="8" fill="none" fill-rule="evenodd" transform="matrix(1 0 0 -1 849.5 520.097)"/><path d="M849.5 520.595C849.5 509.072 874.718 497.548 899.937 497.548 925.155 497.548 950.373 486.024 950.373 474.5" stroke="#000000" stroke-width="3" stroke-miterlimit="8" fill="none" fill-rule="evenodd"/><path d="M0 0C11.5238 0 23.0477 25.2185 23.0477 50.437 23.0477 75.6554 34.5715 100.874 46.0953 100.874" stroke="#000000" stroke-width="3" stroke-miterlimit="8" fill="none" fill-rule="evenodd" transform="matrix(-4.37114e-08 -1 -1 4.37114e-08 1051.37 520.595)"/><path d="M949 412.155 949 373 952 373 952 412.155ZM946 374.5 950.5 365.5 955 374.5Z"/><path d="M0 0C11.6637 0 23.3274 25.2183 23.3274 50.4367 23.3274 75.655 34.9909 100.873 46.6546 100.873" stroke="#000000" stroke-width="3" stroke-miterlimit="8" fill="none" fill-rule="evenodd" transform="matrix(-4.37114e-08 -1 -1 4.37114e-08 950.373 325.155)"/><path d="M806.5 140.167C806.5 136.485 809.485 133.5 813.167 133.5L886.833 133.5C890.515 133.5 893.5 136.485 893.5 140.167L893.5 166.833C893.5 170.515 890.515 173.5 886.833 173.5L813.167 173.5C809.485 173.5 806.5 170.515 806.5 166.833Z" stroke="#A5A5A5" stroke-miterlimit="8" fill="url(#fill1)" fill-rule="evenodd"/><text font-family="Cambria Math,Cambria Math_MSFontService,sans-serif" font-weight="400" font-size="32" transform="translate(817.148 164)">𝑓𝑎𝑘𝑒</text><path d="M806.5 90.1668C806.5 86.4849 809.485 83.5001 813.167 83.5001L886.833 83.5001C890.515 83.5001 893.5 86.4849 893.5 90.1668L893.5 116.833C893.5 120.515 890.515 123.5 886.833 123.5L813.167 123.5C809.485 123.5 806.5 120.515 806.5 116.833Z" stroke="#A5A5A5" stroke-miterlimit="8" fill="url(#fill2)" fill-rule="evenodd"/><text font-family="Cambria Math,Cambria Math_MSFontService,sans-serif" font-weight="400" font-size="32" transform="translate(821.801 114)">𝑟𝑒𝑎𝑙</text><path d="M749.5 325.155C749.5 313.491 774.718 301.827 799.937 301.827 825.155 301.827 850.373 290.164 850.373 278.5" stroke="#000000" stroke-width="3" stroke-miterlimit="8" fill="none" fill-rule="evenodd"/><path d="M1.5-3.62483e-06 1.50009 35.9449-1.49991 35.9449-1.5 3.62483e-06ZM4.50008 34.4449 0.000104987 43.4449-4.49992 34.4449Z" transform="matrix(1 0 0 -1 849.5 216.945)"/><path d="M0 0C11.4761 0 22.9523 25.2184 22.9523 50.4367 22.9523 75.6551 88.8297 100.873 154.707 100.873" stroke="#000000" stroke-width="3" stroke-miterlimit="8" fill="none" fill-rule="evenodd" transform="matrix(-4.37114e-08 -1 -1 4.37114e-08 850.373 520.207)"/><text font-family="Arial,Arial_MSFontService,sans-serif" font-weight="400" font-size="27" transform="translate(793.976 619)">Conditional GAN</text></g></svg>