<svg width="439" height="254" xmlns="http://www.w3.org/2000/svg" xmlns:xlink="http://www.w3.org/1999/xlink" overflow="hidden"><defs><clipPath id="clip0"><path d="M315 235 754 235 754 489 315 489Z" fill-rule="evenodd" clip-rule="evenodd"/></clipPath></defs><g clip-path="url(#clip0)" transform="translate(-315 -235)"><path d="M394.5 360.5C394.5 350.007 403.007 341.5 413.5 341.5 423.993 341.5 432.5 350.007 432.5 360.5 432.5 370.993 423.993 379.5 413.5 379.5 403.007 379.5 394.5 370.993 394.5 360.5Z" stroke="#4472C4" stroke-miterlimit="8" fill="#FFFFFF" fill-rule="evenodd"/><text font-family="DengXian,DengXian_MSFontService,sans-serif" font-weight="400" font-size="24" transform="translate(407.167 368)">a</text><path d="M621.5 360.5C621.5 350.007 630.007 341.5 640.5 341.5 650.993 341.5 659.5 350.007 659.5 360.5 659.5 370.993 650.993 379.5 640.5 379.5 630.007 379.5 621.5 370.993 621.5 360.5Z" stroke="#000000" stroke-miterlimit="8" fill="#FFFFFF" fill-rule="evenodd"/><text font-family="DengXian,DengXian_MSFontService,sans-serif" font-weight="400" font-size="24" transform="translate(633.085 368)">d</text><path d="M508.5 285C508.5 274.783 517.007 266.5 527.5 266.5 537.993 266.5 546.5 274.783 546.5 285 546.5 295.217 537.993 303.5 527.5 303.5 517.007 303.5 508.5 295.217 508.5 285Z" stroke="#000000" stroke-miterlimit="8" fill="#FFFFFF" fill-rule="evenodd"/><text font-family="DengXian,DengXian_MSFontService,sans-serif" font-weight="400" font-size="24" transform="translate(519.704 292)">b</text><path d="M508.5 436C508.5 425.783 517.007 417.5 527.5 417.5 537.993 417.5 546.5 425.783 546.5 436 546.5 446.217 537.993 454.5 527.5 454.5 517.007 454.5 508.5 446.217 508.5 436Z" stroke="#000000" stroke-miterlimit="8" fill="#FFFFFF" fill-rule="evenodd"/><text font-family="DengXian,DengXian_MSFontService,sans-serif" font-weight="400" font-size="24" transform="translate(521.204 443)">c</text><path d="M0.245441-0.435613 81.1628 45.1563 80.6719 46.0275-0.245441 0.435613ZM81.0648 42.6141 86.7256 48.8645 78.4467 47.2607Z" transform="matrix(1 0 0 -1 427.5 347.365)"/><path d="M427.746 373.064 508.663 418.656 508.172 419.528 427.255 373.936ZM508.565 416.114 514.226 422.365 505.947 420.761Z"/><path d="M540.746 298.065 621.592 343.656 621.101 344.527 540.254 298.936ZM621.495 341.114 627.154 347.367 618.875 345.76Z"/><path d="M0.245588-0.43553 81.092 45.1525 80.6009 46.0235-0.245588 0.43553ZM80.9948 42.6102 86.6534 48.8625 78.3751 47.2559Z" transform="matrix(1 0 0 -1 540.5 422.363)"/><text font-family="DengXian,DengXian_MSFontService,sans-serif" font-weight="400" font-size="15" transform="translate(490.015 254)">非叶子节点<tspan x="175.611" y="111">非叶子节点</tspan><tspan x="0" y="222">非叶子节点</tspan><tspan fill="#4472C4" x="-160.149" y="111">叶子节点</tspan></text></g></svg>