<svg width="635" height="330" xmlns="http://www.w3.org/2000/svg" xmlns:xlink="http://www.w3.org/1999/xlink" overflow="hidden"><defs><clipPath id="clip0"><path d="M301 214 936 214 936 544 301 544Z" fill-rule="evenodd" clip-rule="evenodd"/></clipPath><linearGradient x1="482.5" y1="503.5" x2="482.5" y2="543.5" gradientUnits="userSpaceOnUse" spreadMethod="reflect" id="fill1"><stop offset="0" stop-color="#B1CBE9"/><stop offset="0.5" stop-color="#A3C1E5"/><stop offset="1" stop-color="#92B9E4"/></linearGradient><linearGradient x1="482.5" y1="437.5" x2="482.5" y2="477.5" gradientUnits="userSpaceOnUse" spreadMethod="reflect" id="fill2"><stop offset="0" stop-color="#B1CBE9"/><stop offset="0.5" stop-color="#A3C1E5"/><stop offset="1" stop-color="#92B9E4"/></linearGradient><linearGradient x1="482.5" y1="371.5" x2="482.5" y2="411.5" gradientUnits="userSpaceOnUse" spreadMethod="reflect" id="fill3"><stop offset="0" stop-color="#B1CBE9"/><stop offset="0.5" stop-color="#A3C1E5"/><stop offset="1" stop-color="#92B9E4"/></linearGradient><linearGradient x1="350.5" y1="283.5" x2="350.5" y2="323.5" gradientUnits="userSpaceOnUse" spreadMethod="reflect" id="fill4"><stop offset="0" stop-color="#F7BDA4"/><stop offset="0.5" stop-color="#F5B195"/><stop offset="1" stop-color="#F8A581"/></linearGradient><linearGradient x1="482.5" y1="283.5" x2="482.5" y2="323.5" gradientUnits="userSpaceOnUse" spreadMethod="reflect" id="fill5"><stop offset="0" stop-color="#F7BDA4"/><stop offset="0.5" stop-color="#F5B195"/><stop offset="1" stop-color="#F8A581"/></linearGradient><linearGradient x1="614.5" y1="283.5" x2="614.5" y2="323.5" gradientUnits="userSpaceOnUse" spreadMethod="reflect" id="fill6"><stop offset="0" stop-color="#F7BDA4"/><stop offset="0.5" stop-color="#F5B195"/><stop offset="1" stop-color="#F8A581"/></linearGradient><linearGradient x1="350.5" y1="217.5" x2="350.5" y2="257.5" gradientUnits="userSpaceOnUse" spreadMethod="reflect" id="fill7"><stop offset="0" stop-color="#FFDD9C"/><stop offset="0.5" stop-color="#FFD78E"/><stop offset="1" stop-color="#FFD479"/></linearGradient><linearGradient x1="482.5" y1="217.5" x2="482.5" y2="257.5" gradientUnits="userSpaceOnUse" spreadMethod="reflect" id="fill8"><stop offset="0" stop-color="#FFDD9C"/><stop offset="0.5" stop-color="#FFD78E"/><stop offset="1" stop-color="#FFD479"/></linearGradient><linearGradient x1="614.5" y1="217.5" x2="614.5" y2="257.5" gradientUnits="userSpaceOnUse" spreadMethod="reflect" id="fill9"><stop offset="0" stop-color="#FFDD9C"/><stop offset="0.5" stop-color="#FFD78E"/><stop offset="1" stop-color="#FFD479"/></linearGradient></defs><g clip-path="url(#clip0)" transform="translate(-301 -214)"><rect x="350.5" y="503.5" width="264" height="40" stroke="#5B9BD5" stroke-miterlimit="8" fill="url(#fill1)"/><rect x="350.5" y="437.5" width="264" height="40" stroke="#5B9BD5" stroke-miterlimit="8" fill="url(#fill2)"/><rect x="350.5" y="371.5" width="264" height="40" stroke="#5B9BD5" stroke-miterlimit="8" fill="url(#fill3)"/><path d="M0.5-2.02351e-06 0.500078 19.2751-0.499922 19.2751-0.5 2.02351e-06ZM4.00007 17.9417 0.000104987 25.9417-3.99993 17.9417Z" fill="#4472C4" transform="matrix(1 0 0 -1 482.5 503.442)"/><path d="M0.5-2.02351e-06 0.500078 19.2751-0.499922 19.2751-0.5 2.02351e-06ZM4.00007 17.9417 0.000104987 25.9417-3.99993 17.9417Z" fill="#4472C4" transform="matrix(1 0 0 -1 482.5 437.442)"/><rect x="302.5" y="283.5" width="96" height="40" stroke="#ED7D31" stroke-miterlimit="8" fill="url(#fill4)"/><rect x="434.5" y="283.5" width="96" height="40" stroke="#ED7D31" stroke-miterlimit="8" fill="url(#fill5)"/><rect x="566.5" y="283.5" width="96" height="40" stroke="#ED7D31" stroke-miterlimit="8" fill="url(#fill6)"/><path d="M482.678 372.436 356.588 326.262 356.932 325.323 483.021 371.497ZM356.637 330.007 350.5 323.5 359.388 322.495Z" fill="#4472C4"/><path d="M0.5-1.0831e-06 0.500091 41.7994-0.499909 41.7994-0.5 1.0831e-06ZM4.00009 40.466 0.000104987 48.466-3.99991 40.466Z" fill="#4472C4" transform="matrix(1 0 0 -1 482.5 371.966)"/><path d="M0.171933-0.469509 126.261 45.7041 125.918 46.6431-0.171933 0.469509ZM126.213 41.959 132.35 48.466 123.462 49.4712Z" fill="#4472C4" transform="matrix(1 0 0 -1 482.5 371.966)"/><rect x="302.5" y="217.5" width="96" height="40" stroke="#FFC000" stroke-miterlimit="8" fill="url(#fill7)"/><text font-family="DengXian,DengXian_MSFontService,sans-serif" font-weight="300" font-size="24" transform="translate(318.014 244)">Task 1</text><rect x="434.5" y="217.5" width="96" height="40" stroke="#FFC000" stroke-miterlimit="8" fill="url(#fill8)"/><text font-family="DengXian,DengXian_MSFontService,sans-serif" font-weight="300" font-size="24" transform="translate(450.364 244)">Task 2</text><rect x="566.5" y="217.5" width="96" height="40" stroke="#FFC000" stroke-miterlimit="8" fill="url(#fill9)"/><text font-family="DengXian,DengXian_MSFontService,sans-serif" font-weight="300" font-size="24" transform="translate(582.714 244)">Task 3</text><path d="M0.5-2.02351e-06 0.500078 19.2751-0.499922 19.2751-0.5 2.02351e-06ZM4.00007 17.9417 0.000104987 25.9417-3.99993 17.9417Z" fill="#4472C4" transform="matrix(1 0 0 -1 350.5 283.442)"/><path d="M0.5-2.02351e-06 0.500078 19.2751-0.499922 19.2751-0.5 2.02351e-06ZM4.00007 17.9417 0.000104987 25.9417-3.99993 17.9417Z" fill="#4472C4" transform="matrix(1 0 0 -1 482.5 283.442)"/><path d="M0.5-2.02351e-06 0.500078 19.2751-0.499922 19.2751-0.5 2.02351e-06ZM4.00007 17.9417 0.000104987 25.9417-3.99993 17.9417Z" fill="#4472C4" transform="matrix(1 0 0 -1 614.5 283.442)"/><path d="M719.5 371.5C730.546 371.5 739.5 372.992 739.5 374.833L739.5 454.167C739.5 456.008 748.455 457.5 759.5 457.5 748.455 457.5 739.5 458.992 739.5 460.833L739.5 540.167C739.5 542.008 730.546 543.5 719.5 543.5" stroke="#5B9BD5" stroke-miterlimit="8" fill="none" fill-rule="evenodd"/><text font-family="DengXian,DengXian_MSFontService,sans-serif" font-weight="300" font-size="24" transform="translate(781.915 465)">Shared layers</text><path d="M719.5 283.5C730.546 283.5 739.5 284.992 739.5 286.833L739.5 300.167C739.5 302.008 748.454 303.5 759.5 303.5 748.454 303.5 739.5 304.992 739.5 306.833L739.5 320.167C739.5 322.008 730.546 323.5 719.5 323.5" stroke="#ED7D31" stroke-miterlimit="8" fill="none" fill-rule="evenodd"/><text font-family="DengXian,DengXian_MSFontService,sans-serif" font-weight="300" font-size="24" transform="translate(781.915 311)">Specific layers</text></g></svg>