<svg width="346" height="570" xmlns="http://www.w3.org/2000/svg" xmlns:xlink="http://www.w3.org/1999/xlink" overflow="hidden"><defs><clipPath id="clip0"><path d="M94 82 440 82 440 652 94 652Z" fill-rule="evenodd" clip-rule="evenodd"/></clipPath><linearGradient x1="254" y1="133.5" x2="254" y2="173.5" gradientUnits="userSpaceOnUse" spreadMethod="reflect" id="fill1"><stop offset="0" stop-color="#D2D2D2"/><stop offset="0.5" stop-color="#C8C8C8"/><stop offset="1" stop-color="#C0C0C0"/></linearGradient><linearGradient x1="254" y1="83.5001" x2="254" y2="123.5" gradientUnits="userSpaceOnUse" spreadMethod="reflect" id="fill2"><stop offset="0" stop-color="#D2D2D2"/><stop offset="0.5" stop-color="#C8C8C8"/><stop offset="1" stop-color="#C0C0C0"/></linearGradient></defs><g clip-path="url(#clip0)" transform="translate(-94 -82)"><path d="M306.5 332.167C306.5 328.485 309.485 325.5 313.167 325.5L395.833 325.5C399.515 325.5 402.5 328.485 402.5 332.167L402.5 358.833C402.5 362.515 399.515 365.5 395.833 365.5L313.167 365.5C309.485 365.5 306.5 362.515 306.5 358.833Z" stroke="#A5A5A5" stroke-width="0.666667" stroke-miterlimit="8" fill="#EDEDED" fill-rule="evenodd"/><text font-family="Cambria Math,Cambria Math_MSFontService,sans-serif" font-weight="400" font-size="32" transform="translate(317.779 354)">𝑋<tspan font-size="23" x="17.32" y="7">𝑓𝑎𝑘𝑒</tspan></text><path d="M104.5 332.167C104.5 328.485 107.485 325.5 111.167 325.5L194.833 325.5C198.515 325.5 201.5 328.485 201.5 332.167L201.5 358.833C201.5 362.515 198.515 365.5 194.833 365.5L111.167 365.5C107.485 365.5 104.5 362.515 104.5 358.833Z" stroke="#A5A5A5" stroke-width="0.666667" stroke-miterlimit="8" fill="#EDEDED" fill-rule="evenodd"/><text font-family="Cambria Math,Cambria Math_MSFontService,sans-serif" font-weight="400" font-size="32" transform="translate(119.813 356)">𝑋<tspan font-size="23" x="19.26" y="6">𝑟𝑒𝑎𝑙</tspan></text><path d="M279.5 527.167C279.5 523.485 282.485 520.5 286.167 520.5L423.833 520.5C427.515 520.5 430.5 523.485 430.5 527.167L430.5 553.833C430.5 557.515 427.515 560.5 423.833 560.5L286.167 560.5C282.485 560.5 279.5 557.515 279.5 553.833Z" stroke="#A5A5A5" stroke-width="0.666667" stroke-miterlimit="8" fill="#EDEDED" fill-rule="evenodd"/><text font-family="Cambria Math,Cambria Math_MSFontService,sans-serif" font-weight="400" font-size="32" transform="translate(290.317 551)">𝑍<tspan x="19.78" y="0"> </tspan></text><path d="M408.259 526.897C411.301 527.699 413.637 529.431 415.267 532.092 416.897 534.754 417.712 537.964 417.712 541.725 417.712 545.496 416.9 548.707 415.275 551.358 413.65 554.009 411.311 555.735 408.259 556.537L407.884 555.334C410.29 554.532 412.079 552.949 413.251 550.584 414.423 548.22 415.009 545.214 415.009 541.569 415.009 538.048 414.426 535.123 413.259 532.795 412.092 530.467 410.285 528.902 407.837 528.1ZM329.362 526.897 329.784 528.1C327.347 528.902 325.542 530.467 324.37 532.795 323.198 535.123 322.612 538.048 322.612 541.569 322.612 545.214 323.198 548.22 324.37 550.584 325.542 552.949 327.331 554.532 329.737 555.334L329.362 556.537C326.31 555.735 323.972 554.009 322.347 551.358 320.722 548.707 319.909 545.496 319.909 541.725 319.909 537.964 320.724 534.754 322.354 532.092 323.985 529.431 326.321 527.699 329.362 526.897Z" fill-rule="evenodd"/><text font-family="Cambria Math,Cambria Math_MSFontService,sans-serif" font-weight="400" font-size="32" transform="translate(330.377 551)">𝑛𝑜𝑖𝑠𝑒</text><path d="M432.5 412.5 417 474.5 292 474.5 276.5 412.5Z" stroke="#78A7FF" stroke-width="13.3333" stroke-linecap="round" stroke-linejoin="round" stroke-miterlimit="10" fill="#78A7FF" fill-rule="evenodd"/><text font-family="Abadi,Abadi_MSFontService,sans-serif" font-weight="400" font-size="43" transform="translate(341.018 457)">G</text><path d="M331.5 216.5 316 278.5 191 278.5 175.5 216.5Z" stroke="#A9D18E" stroke-width="13.3333" stroke-linecap="round" stroke-linejoin="round" stroke-miterlimit="10" fill="#A9D18E" fill-rule="evenodd"/><text font-family="Abadi,Abadi_MSFontService,sans-serif" font-weight="400" font-size="43" transform="translate(238.811 262)">D</text><path d="M353 412.155 353 373 356 373 356 412.155ZM350 374.5 354.5 365.5 359 374.5Z"/><path d="M0 0C11.6637 0 23.3274 25.2183 23.3274 50.4367 23.3274 75.655 34.9909 100.873 46.6546 100.873" stroke="#000000" stroke-width="3" stroke-miterlimit="8" fill="none" fill-rule="evenodd" transform="matrix(-4.37114e-08 -1 -1 4.37114e-08 354.373 325.155)"/><path d="M210.5 140.167C210.5 136.485 213.485 133.5 217.167 133.5L290.833 133.5C294.515 133.5 297.5 136.485 297.5 140.167L297.5 166.833C297.5 170.515 294.515 173.5 290.833 173.5L217.167 173.5C213.485 173.5 210.5 170.515 210.5 166.833Z" stroke="#A5A5A5" stroke-width="0.666667" stroke-miterlimit="8" fill="url(#fill1)" fill-rule="evenodd"/><text font-family="Cambria Math,Cambria Math_MSFontService,sans-serif" font-weight="400" font-size="32" transform="translate(221.137 164)">𝑓𝑎𝑘𝑒</text><path d="M210.5 90.1668C210.5 86.4849 213.485 83.5001 217.167 83.5001L290.833 83.5001C294.515 83.5001 297.5 86.4849 297.5 90.1668L297.5 116.833C297.5 120.515 294.515 123.5 290.833 123.5L217.167 123.5C213.485 123.5 210.5 120.515 210.5 116.833Z" stroke="#A5A5A5" stroke-width="0.666667" stroke-miterlimit="8" fill="url(#fill2)" fill-rule="evenodd"/><text font-family="Cambria Math,Cambria Math_MSFontService,sans-serif" font-weight="400" font-size="32" transform="translate(225.791 114)">𝑟𝑒𝑎𝑙</text><path d="M153.5 325.155C153.5 313.491 178.718 301.827 203.937 301.827 229.155 301.827 254.373 290.164 254.373 278.5" stroke="#000000" stroke-width="3" stroke-miterlimit="8" fill="none" fill-rule="evenodd"/><path d="M1.5-3.62483e-06 1.50009 35.9449-1.49991 35.9449-1.5 3.62483e-06ZM4.50008 34.4449 0.000104987 43.4449-4.49992 34.4449Z" transform="matrix(1 0 0 -1 253.5 216.945)"/><text font-family="Myriad Pro,Myriad Pro_MSFontService,sans-serif" font-weight="300" font-stretch="semi-expanded" font-size="32" transform="translate(114.068 624)">Vanilla GAN</text><path d="M354.5 520.595 354.5 474.5" stroke="#000000" stroke-width="3" stroke-miterlimit="8" fill="none" fill-rule="evenodd"/></g></svg>