<svg width="176" height="271" xmlns="http://www.w3.org/2000/svg" xmlns:xlink="http://www.w3.org/1999/xlink" overflow="hidden"><defs><clipPath id="clip0"><path d="M859 174 1035 174 1035 445 859 445Z" fill-rule="evenodd" clip-rule="evenodd"/></clipPath></defs><g clip-path="url(#clip0)" transform="translate(-859 -174)"><path d="M1.45697-1.37012 126.331 131.419 123.417 134.159-1.45697 1.37012ZM127.874 127.222 131.724 140.074 119.133 135.443Z" fill="#4472C4" transform="matrix(1 0 0 -1 861 348.074)"/><path d="M861.936 346.233 988.902 413.509 987.03 417.043 860.064 349.767ZM989.008 409.038 996.802 419.958 983.39 419.642Z" fill="#4472C4"/><text font-family="Cambria Math,Cambria Math_MSFontService,sans-serif" font-weight="400" font-size="24" transform="translate(997.951 201)">𝑔<tspan font-size="18" x="13.2933" y="5">1</tspan><tspan x="5.09747" y="232">𝑔</tspan><tspan font-size="18" x="18.9441" y="237">2</tspan></text><path d="M996.617 419.765 990.5 208.5" stroke="#000000" stroke-width="0.666667" stroke-miterlimit="8" stroke-dasharray="2.66667 2" fill="none" fill-rule="evenodd"/><path d="M861.5 347 985.724 347 985.724 350 861.5 350ZM984.224 344 993.224 348.5 984.224 353Z" fill="#548235"/><text font-family="DengXian,DengXian_MSFontService,sans-serif" font-weight="400" font-size="24" transform="matrix(6.12323e-17 1 -1 6.12323e-17 978.354 325)">∟</text></g></svg>