<svg width="410" height="565" xmlns="http://www.w3.org/2000/svg" xmlns:xlink="http://www.w3.org/1999/xlink" overflow="hidden"><defs><clipPath id="clip0"><path d="M666 129 1076 129 1076 694 666 694Z" fill-rule="evenodd" clip-rule="evenodd"/></clipPath><linearGradient x1="752" y1="179.5" x2="752" y2="220.5" gradientUnits="userSpaceOnUse" spreadMethod="reflect" id="fill1"><stop offset="0" stop-color="#D2D2D2"/><stop offset="0.5" stop-color="#C8C8C8"/><stop offset="1" stop-color="#C0C0C0"/></linearGradient><linearGradient x1="752" y1="130.5" x2="752" y2="170.5" gradientUnits="userSpaceOnUse" spreadMethod="reflect" id="fill2"><stop offset="0" stop-color="#D2D2D2"/><stop offset="0.5" stop-color="#C8C8C8"/><stop offset="1" stop-color="#C0C0C0"/></linearGradient><linearGradient x1="954" y1="180.5" x2="954" y2="220.5" gradientUnits="userSpaceOnUse" spreadMethod="reflect" id="fill3"><stop offset="0" stop-color="#D2D2D2"/><stop offset="0.5" stop-color="#C8C8C8"/><stop offset="1" stop-color="#C0C0C0"/></linearGradient><linearGradient x1="952" y1="130.5" x2="952" y2="170.5" gradientUnits="userSpaceOnUse" spreadMethod="reflect" id="fill4"><stop offset="0" stop-color="#D2D2D2"/><stop offset="0.5" stop-color="#C8C8C8"/><stop offset="1" stop-color="#C0C0C0"/></linearGradient></defs><g clip-path="url(#clip0)" transform="translate(-666 -129)"><path d="M905.5 383.334C905.5 379.56 908.56 376.5 912.334 376.5L994.667 376.5C998.441 376.5 1001.5 379.56 1001.5 383.334L1001.5 410.667C1001.5 414.441 998.441 417.5 994.667 417.5L912.334 417.5C908.56 417.5 905.5 414.441 905.5 410.667Z" stroke="#A5A5A5" stroke-miterlimit="8" fill="#EDEDED" fill-rule="evenodd"/><text font-family="Cambria Math,Cambria Math_MSFontService,sans-serif" font-weight="400" font-size="32" transform="translate(916.75 406)">𝑋<tspan font-size="23" x="17.32" y="6">𝑓𝑎𝑘𝑒</tspan></text><path d="M703.5 383.334C703.5 379.56 706.56 376.5 710.334 376.5L793.667 376.5C797.441 376.5 800.5 379.56 800.5 383.334L800.5 410.667C800.5 414.441 797.441 417.5 793.667 417.5L710.334 417.5C706.56 417.5 703.5 414.441 703.5 410.667Z" stroke="#A5A5A5" stroke-miterlimit="8" fill="#EDEDED" fill-rule="evenodd"/><text font-family="Cambria Math,Cambria Math_MSFontService,sans-serif" font-weight="400" font-size="32" transform="translate(716.89 407)">𝑋<tspan font-size="23" x="19.26" y="7">𝑟𝑒𝑎𝑙</tspan></text><path d="M878.5 578.334C878.5 574.56 881.56 571.5 885.334 571.5L1022.67 571.5C1026.44 571.5 1029.5 574.56 1029.5 578.334L1029.5 605.667C1029.5 609.441 1026.44 612.5 1022.67 612.5L885.334 612.5C881.56 612.5 878.5 609.441 878.5 605.667Z" stroke="#A5A5A5" stroke-miterlimit="8" fill="#EDEDED" fill-rule="evenodd"/><text font-family="Cambria Math,Cambria Math_MSFontService,sans-serif" font-weight="400" font-size="32" transform="translate(889.287 602)">𝑍<tspan x="19.78" y="0"> </tspan></text><path d="M1007.23 578.235C1010.27 579.037 1012.61 580.769 1014.24 583.43 1015.87 586.091 1016.68 589.302 1016.68 593.063 1016.68 596.834 1015.87 600.045 1014.25 602.696 1012.62 605.347 1010.28 607.073 1007.23 607.875L1006.85 606.672C1009.26 605.87 1011.05 604.287 1012.22 601.922 1013.39 599.558 1013.98 596.552 1013.98 592.907 1013.98 589.386 1013.4 586.461 1012.23 584.133 1011.06 581.805 1009.26 580.24 1006.81 579.438ZM928.333 578.235 928.755 579.438C926.318 580.24 924.513 581.805 923.341 584.133 922.169 586.461 921.583 589.386 921.583 592.907 921.583 596.552 922.169 599.558 923.341 601.922 924.513 604.287 926.302 605.87 928.708 606.672L928.333 607.875C925.281 607.073 922.943 605.347 921.318 602.696 919.693 600.045 918.88 596.834 918.88 593.063 918.88 589.302 919.695 586.091 921.325 583.43 922.956 580.769 925.291 579.037 928.333 578.235Z" fill-rule="evenodd"/><text font-family="Cambria Math,Cambria Math_MSFontService,sans-serif" font-weight="400" font-size="32" transform="translate(929.347 602)">𝑛𝑜𝑖𝑠𝑒</text><path d="M1031.5 463.5 1016 525.5 891 525.5 875.5 463.5Z" stroke="#78A7FF" stroke-width="13" stroke-linecap="round" stroke-linejoin="round" stroke-miterlimit="10" fill="#78A7FF" fill-rule="evenodd"/><text font-family="Abadi,Abadi_MSFontService,sans-serif" font-weight="400" font-size="43" transform="translate(939.989 509)">G</text><path d="M830.5 268.5 815 330.5 690 330.5 674.5 268.5Z" stroke="#A9D18E" stroke-width="13" stroke-linecap="round" stroke-linejoin="round" stroke-miterlimit="10" fill="#A9D18E" fill-rule="evenodd"/><text font-family="Abadi,Abadi_MSFontService,sans-serif" font-weight="400" font-size="43" transform="translate(736.908 313)">D</text><path d="M952 464.155 952 425 955 425 955 464.155ZM949 426.5 953.5 417.5 958 426.5Z"/><path d="M0 0C11.6636 0 23.3274 50.4367 23.3274 100.873 23.3274 151.31 34.991 201.747 46.6546 201.747" stroke="#000000" stroke-width="3" stroke-miterlimit="8" fill="none" fill-rule="evenodd" transform="matrix(-4.37114e-08 -1 -1 4.37114e-08 954.247 377.155)"/><path d="M1.5-3.26633e-06 1.50009 40.7132-1.49991 40.7132-1.5 3.26633e-06ZM4.50009 39.2132 0.000104987 48.2132-4.49991 39.2132Z" transform="matrix(1 0 0 -1 752.5 268.713)"/><text font-family="Arial,Arial_MSFontService,sans-serif" font-weight="400" font-size="27" transform="translate(780.27 671)">Multi<tspan x="56.3333" y="0">-</tspan><tspan x="65.1666" y="0">Objective GAN</tspan></text><path d="M953.5 571.595 953.5 525.5" stroke="#000000" stroke-width="3" stroke-miterlimit="8" fill="none" fill-rule="evenodd"/><path d="M701.5 186.334C701.5 182.56 704.56 179.5 708.334 179.5L795.667 179.5C799.441 179.5 802.5 182.56 802.5 186.334L802.5 213.667C802.5 217.441 799.441 220.5 795.667 220.5L708.334 220.5C704.56 220.5 701.5 217.441 701.5 213.667Z" stroke="#A5A5A5" stroke-miterlimit="8" fill="url(#fill1)" fill-rule="evenodd"/><text font-family="Cambria Math,Cambria Math_MSFontService,sans-serif" font-weight="400" font-size="32" transform="translate(716.682 210)">𝑓𝑎𝑘𝑒</text><path d="M701.5 137.167C701.5 133.485 704.485 130.5 708.167 130.5L795.833 130.5C799.515 130.5 802.5 133.485 802.5 137.167L802.5 163.833C802.5 167.515 799.515 170.5 795.833 170.5L708.167 170.5C704.485 170.5 701.5 167.515 701.5 163.833Z" stroke="#A5A5A5" stroke-miterlimit="8" fill="url(#fill2)" fill-rule="evenodd"/><text font-family="Cambria Math,Cambria Math_MSFontService,sans-serif" font-weight="400" font-size="32" transform="translate(721.529 160)">𝑟𝑒𝑎𝑙</text><path d="M903.5 187.167C903.5 183.485 906.485 180.5 910.167 180.5L997.833 180.5C1001.52 180.5 1004.5 183.485 1004.5 187.167L1004.5 213.833C1004.5 217.515 1001.52 220.5 997.833 220.5L910.167 220.5C906.485 220.5 903.5 217.515 903.5 213.833Z" stroke="#A5A5A5" stroke-miterlimit="8" fill="url(#fill3)" fill-rule="evenodd"/><text font-family="Cambria Math,Cambria Math_MSFontService,sans-serif" font-weight="400" font-size="32" transform="translate(914.763 211)">𝑓𝑎𝑙𝑠𝑒</text><path d="M901.5 137.167C901.5 133.485 904.485 130.5 908.167 130.5L995.833 130.5C999.515 130.5 1002.5 133.485 1002.5 137.167L1002.5 163.833C1002.5 167.515 999.515 170.5 995.833 170.5L908.167 170.5C904.485 170.5 901.5 167.515 901.5 163.833Z" stroke="#A5A5A5" stroke-miterlimit="8" fill="url(#fill4)" fill-rule="evenodd"/><text font-family="Cambria Math,Cambria Math_MSFontService,sans-serif" font-weight="400" font-size="32" transform="translate(920.064 160)">𝑡𝑟𝑢𝑒</text><path d="M752.5 377.155 752.5 330.5" stroke="#000000" stroke-width="3" stroke-miterlimit="8" fill="none" fill-rule="evenodd"/><path d="M1031.5 267.5 1016 329.5 891 329.5 875.5 267.5Z" stroke="#A9D18E" stroke-width="13" stroke-linecap="round" stroke-linejoin="round" stroke-miterlimit="10" fill="#A9D18E" fill-rule="evenodd"/><text font-family="Abadi,Abadi_MSFontService,sans-serif" font-weight="400" font-size="43" transform="translate(921.747 313)">C/F</text><path d="M0 0 0.000104987 47.2185" stroke="#000000" stroke-width="3" stroke-miterlimit="8" fill="none" fill-rule="evenodd" transform="matrix(1 0 0 -1 953.5 376.719)"/><path d="M952 267.718 952 228 955 228 955 267.718ZM949 229.5 953.5 220.5 958 229.5Z"/></g></svg>