<svg width="429" height="619" xmlns="http://www.w3.org/2000/svg" xmlns:xlink="http://www.w3.org/1999/xlink" overflow="hidden"><defs><clipPath id="clip0"><path d="M52 84 481 84 481 703 52 703Z" fill-rule="evenodd" clip-rule="evenodd"/></clipPath><linearGradient x1="139" y1="184.5" x2="139" y2="224.5" gradientUnits="userSpaceOnUse" spreadMethod="reflect" id="fill1"><stop offset="0" stop-color="#D2D2D2"/><stop offset="0.5" stop-color="#C8C8C8"/><stop offset="1" stop-color="#C0C0C0"/></linearGradient><linearGradient x1="139" y1="134.5" x2="139" y2="175.5" gradientUnits="userSpaceOnUse" spreadMethod="reflect" id="fill2"><stop offset="0" stop-color="#D2D2D2"/><stop offset="0.5" stop-color="#C8C8C8"/><stop offset="1" stop-color="#C0C0C0"/></linearGradient><linearGradient x1="264" y1="184.5" x2="264" y2="224.5" gradientUnits="userSpaceOnUse" spreadMethod="reflect" id="fill3"><stop offset="0" stop-color="#D2D2D2"/><stop offset="0.5" stop-color="#C8C8C8"/><stop offset="1" stop-color="#C0C0C0"/></linearGradient><linearGradient x1="264" y1="134.5" x2="264" y2="175.5" gradientUnits="userSpaceOnUse" spreadMethod="reflect" id="fill4"><stop offset="0" stop-color="#D2D2D2"/><stop offset="0.5" stop-color="#C8C8C8"/><stop offset="1" stop-color="#C0C0C0"/></linearGradient><linearGradient x1="264" y1="84.5001" x2="264" y2="125.5" gradientUnits="userSpaceOnUse" spreadMethod="reflect" id="fill5"><stop offset="0" stop-color="#D2D2D2"/><stop offset="0.5" stop-color="#C8C8C8"/><stop offset="1" stop-color="#C0C0C0"/></linearGradient></defs><g clip-path="url(#clip0)" transform="translate(-52 -84)"><path d="M255.5 383.334C255.5 379.56 258.56 376.5 262.334 376.5L344.667 376.5C348.441 376.5 351.5 379.56 351.5 383.334L351.5 410.667C351.5 414.441 348.441 417.5 344.667 417.5L262.334 417.5C258.56 417.5 255.5 414.441 255.5 410.667Z" stroke="#A5A5A5" stroke-width="0.666667" stroke-miterlimit="8" fill="#EDEDED" fill-rule="evenodd"/><text font-family="Cambria Math,Cambria Math_MSFontService,sans-serif" font-weight="400" font-size="32" transform="translate(266.595 406)">𝑋<tspan font-size="23" x="17.32" y="6">𝑓𝑎𝑘𝑒</tspan></text><path d="M53.5001 383.334C53.5001 379.56 56.5595 376.5 60.3335 376.5L143.667 376.5C147.441 376.5 150.5 379.56 150.5 383.334L150.5 410.667C150.5 414.441 147.441 417.5 143.667 417.5L60.3335 417.5C56.5595 417.5 53.5001 414.441 53.5001 410.667Z" stroke="#A5A5A5" stroke-width="0.666667" stroke-miterlimit="8" fill="#EDEDED" fill-rule="evenodd"/><text font-family="Cambria Math,Cambria Math_MSFontService,sans-serif" font-weight="400" font-size="32" transform="translate(66.7352 407)">𝑋<tspan font-size="23" x="19.26" y="7">𝑟𝑒𝑎𝑙</tspan></text><path d="M328.5 578.334C328.5 574.56 331.56 571.5 335.334 571.5L473.667 571.5C477.441 571.5 480.5 574.56 480.5 578.334L480.5 605.667C480.5 609.441 477.441 612.5 473.667 612.5L335.334 612.5C331.56 612.5 328.5 609.441 328.5 605.667Z" stroke="#A5A5A5" stroke-width="0.666667" stroke-miterlimit="8" fill="#EDEDED" fill-rule="evenodd"/><text font-family="Cambria Math,Cambria Math_MSFontService,sans-serif" font-weight="400" font-size="32" transform="translate(340.006 602)">𝑍<tspan x="19.78" y="0"> </tspan></text><path d="M457.949 578.235C460.99 579.037 463.326 580.769 464.956 583.43 466.587 586.091 467.402 589.302 467.402 593.063 467.402 596.834 466.589 600.045 464.964 602.696 463.339 605.347 461.001 607.073 457.949 607.875L457.574 606.672C459.98 605.87 461.769 604.287 462.941 601.922 464.113 599.558 464.699 596.552 464.699 592.907 464.699 589.386 464.115 586.461 462.949 584.133 461.782 581.805 459.975 580.24 457.527 579.438ZM379.052 578.235 379.474 579.438C377.036 580.24 375.232 581.805 374.06 584.133 372.888 586.461 372.302 589.386 372.302 592.907 372.302 596.552 372.888 599.558 374.06 601.922 375.232 604.287 377.021 605.87 379.427 606.672L379.052 607.875C376 607.073 373.661 605.347 372.036 602.696 370.411 600.045 369.599 596.834 369.599 593.063 369.599 589.302 370.414 586.091 372.044 583.43 373.674 580.769 376.01 579.037 379.052 578.235Z" fill-rule="evenodd"/><text font-family="Cambria Math,Cambria Math_MSFontService,sans-serif" font-weight="400" font-size="32" transform="translate(380.066 602)">𝑛𝑜𝑖𝑠𝑒</text><path d="M127.5 578.334C127.5 574.56 130.56 571.5 134.334 571.5L271.667 571.5C275.441 571.5 278.5 574.56 278.5 578.334L278.5 605.667C278.5 609.441 275.441 612.5 271.667 612.5L134.334 612.5C130.56 612.5 127.5 609.441 127.5 605.667Z" stroke="#A5A5A5" stroke-width="0.666667" stroke-miterlimit="8" fill="#EDEDED" fill-rule="evenodd"/><text font-family="Cambria Math,Cambria Math_MSFontService,sans-serif" font-weight="400" font-size="32" transform="translate(139.019 602)">𝐶<tspan x="20.5733" y="0"> </tspan></text><path d="M253.235 578.235C256.276 579.037 258.612 580.769 260.242 583.43 261.873 586.091 262.688 589.302 262.688 593.063 262.688 596.834 261.875 600.045 260.25 602.696 258.625 605.347 256.287 607.073 253.235 607.875L252.86 606.672C255.266 605.87 257.055 604.287 258.227 601.922 259.399 599.558 259.985 596.552 259.985 592.907 259.985 589.386 259.401 586.461 258.235 584.133 257.068 581.805 255.261 580.24 252.813 579.438ZM178.858 578.235 179.28 579.438C176.842 580.24 175.038 581.805 173.866 584.133 172.694 586.461 172.108 589.386 172.108 592.907 172.108 596.552 172.694 599.558 173.866 601.922 175.038 604.287 176.827 605.87 179.233 606.672L178.858 607.875C175.806 607.073 173.467 605.347 171.842 602.696 170.217 600.045 169.405 596.834 169.405 593.063 169.405 589.302 170.22 586.091 171.85 583.43 173.48 580.769 175.816 579.037 178.858 578.235Z" fill-rule="evenodd"/><text font-family="Cambria Math,Cambria Math_MSFontService,sans-serif" font-weight="400" font-size="32" transform="translate(179.872 602)">𝑙𝑎𝑏𝑒𝑙</text><path d="M381.5 463.5 366 525.5 241 525.5 225.5 463.5Z" stroke="#78A7FF" stroke-width="13.3333" stroke-linecap="round" stroke-linejoin="round" stroke-miterlimit="10" fill="#78A7FF" fill-rule="evenodd"/><text font-family="Abadi,Abadi_MSFontService,sans-serif" font-weight="400" font-size="43" transform="translate(289.834 509)">G</text><path d="M280.5 268.5 265 330.5 140 330.5 124.5 268.5Z" stroke="#A9D18E" stroke-width="13.3333" stroke-linecap="round" stroke-linejoin="round" stroke-miterlimit="10" fill="#A9D18E" fill-rule="evenodd"/><text font-family="Abadi,Abadi_MSFontService,sans-serif" font-weight="400" font-size="43" transform="translate(167.377 313)">D/C</text><path d="M202.5 571.595C202.5 560.072 227.718 548.548 252.937 548.548 278.155 548.548 303.373 537.024 303.373 525.5" stroke="#000000" stroke-width="3" stroke-miterlimit="8" fill="none" fill-rule="evenodd"/><path d="M0 0C11.5238 0 23.0477 25.2185 23.0477 50.437 23.0477 75.6554 34.5715 100.874 46.0953 100.874" stroke="#000000" stroke-width="3" stroke-miterlimit="8" fill="none" fill-rule="evenodd" transform="matrix(-4.37114e-08 -1 -1 4.37114e-08 404.374 571.595)"/><path d="M302 464.155 302 425 305 425 305 464.155ZM299 426.5 303.5 417.5 308 426.5Z"/><path d="M0 0C11.6637 0 23.3274 25.2183 23.3274 50.4367 23.3274 75.655 34.9909 100.873 46.6546 100.873" stroke="#000000" stroke-width="3" stroke-miterlimit="8" fill="none" fill-rule="evenodd" transform="matrix(-4.37114e-08 -1 -1 4.37114e-08 303.373 377.155)"/><path d="M88.5001 191.167C88.5001 187.485 91.4849 184.5 95.1669 184.5L182.833 184.5C186.515 184.5 189.5 187.485 189.5 191.167L189.5 217.833C189.5 221.515 186.515 224.5 182.833 224.5L95.1669 224.5C91.4849 224.5 88.5001 221.515 88.5001 217.833Z" stroke="#A5A5A5" stroke-width="0.666667" stroke-miterlimit="8" fill="url(#fill1)" fill-rule="evenodd"/><text font-family="Cambria Math,Cambria Math_MSFontService,sans-serif" font-weight="400" font-size="32" transform="translate(103.9 215)">𝑓𝑎𝑘𝑒</text><path d="M88.5001 141.334C88.5001 137.56 91.5595 134.5 95.3336 134.5L182.667 134.5C186.441 134.5 189.5 137.56 189.5 141.334L189.5 168.667C189.5 172.441 186.441 175.5 182.667 175.5L95.3336 175.5C91.5595 175.5 88.5001 172.441 88.5001 168.667Z" stroke="#A5A5A5" stroke-width="0.666667" stroke-miterlimit="8" fill="url(#fill2)" fill-rule="evenodd"/><text font-family="Cambria Math,Cambria Math_MSFontService,sans-serif" font-weight="400" font-size="32" transform="translate(108.747 165)">𝑟𝑒𝑎𝑙</text><path d="M101.5 377.155C101.5 365.491 126.718 353.827 151.937 353.827 177.155 353.827 202.373 342.164 202.373 330.5" stroke="#000000" stroke-width="3" stroke-miterlimit="8" fill="none" fill-rule="evenodd"/><path d="M0.218241-1.48404 2.49936-1.14858 4.99889-0.220183 7.29015 1.30732 9.50484 3.25357 11.6231 5.70276 13.5905 8.52268 17.178 15.1213 20.1797 22.9766 22.4685 31.6232 23.9935 40.9004 24.4979 50.3576 24.4953 50.3194 24.6828 52.6944 24.6471 52.4668 25.2096 54.8418 25.1093 54.5532 27.2968 59.2407 27.1198 58.9518 30.6823 63.5143 30.532 63.3489 35.3445 67.9114 35.188 67.782 41.188 72.0945 41.0826 72.0252 48.0826 76.2127 47.9749 76.1542 55.9749 80.0917 55.888 80.0523 64.763 83.7398 64.6838 83.7095 74.3088 87.0845 74.2395 87.0621 84.552 90.1246 84.4849 90.1063 95.3599 92.7938 95.2988 92.7801 106.674 95.0926 106.604 95.08 118.354 96.8925 118.295 96.8847 130.357 98.2597 130.287 98.2533 142.537 99.0658 142.476 99.063 147.29 99.1852 147.214 102.184 142.369 102.061 130.053 101.244 117.926 99.862 106.111 98.0395 94.6705 95.7137 83.7313 93.0103 73.3505 89.9276 63.6511 86.5265 54.6929 82.8044 46.5951 78.8187 39.4883 74.5674 33.3544 70.1586 28.3867 65.449 24.6503 60.6638 22.3258 55.6826 21.7012 53.0458 21.5031 50.5365 21.0021 41.1424 21.0199 41.3058 19.5199 32.1808 19.5499 32.3213 17.2999 23.8213 17.3488 23.9729 14.4113 16.2854 14.4947 16.4665 10.9947 10.029 11.0823 10.1708 9.20731 7.48327 9.30295 7.60623 7.30296 5.29373 7.44733 5.43925 5.38483 3.62675 5.54295 3.74808 3.48045 2.37308 3.79022 2.53114 1.60272 1.71864 1.90676 1.79654-0.218241 1.48404ZM145.867 96.1481 154.75 100.875 145.639 105.145Z" transform="matrix(-4.37114e-08 -1 -1 4.37114e-08 202.373 572.207)"/><text font-family="Myriad Pro,Myriad Pro_MSFontService,sans-serif" font-weight="300" font-stretch="semi-expanded" font-size="32" transform="translate(75.9675 675)">Auxiliary Classifier GAN</text><path d="M213.5 191.167C213.5 187.485 216.485 184.5 220.167 184.5L307.833 184.5C311.515 184.5 314.5 187.485 314.5 191.167L314.5 217.833C314.5 221.515 311.515 224.5 307.833 224.5L220.167 224.5C216.485 224.5 213.5 221.515 213.5 217.833Z" stroke="#A5A5A5" stroke-width="0.666667" stroke-miterlimit="8" fill="url(#fill3)" fill-rule="evenodd"/><text font-family="Cambria Math,Cambria Math_MSFontService,sans-serif" font-weight="400" font-size="32" transform="translate(226.968 215)">𝑐<tspan x="24.5667" y="0">=</tspan><tspan x="57.2867" y="0">1</tspan></text><path d="M213.5 141.334C213.5 137.56 216.56 134.5 220.334 134.5L307.667 134.5C311.441 134.5 314.5 137.56 314.5 141.334L314.5 168.667C314.5 172.441 311.441 175.5 307.667 175.5L220.334 175.5C216.56 175.5 213.5 172.441 213.5 168.667Z" stroke="#A5A5A5" stroke-width="0.666667" stroke-miterlimit="8" fill="url(#fill4)" fill-rule="evenodd"/><text font-family="Cambria Math,Cambria Math_MSFontService,sans-serif" font-weight="400" font-size="32" transform="translate(225.608 165)">𝑐<tspan x="24.5667" y="0">=</tspan><tspan x="57.2867" y="0">2</tspan></text><path d="M0.250287-1.47897 4.54269-0.752565 8.90187 1.49514 12.8252 4.82 16.3034 9.08566 19.1628 14.0896 21.4316 19.5997 22.8602 25.5738 23.3697 31.6241 23.8697 37.5616 23.8339 37.3386 25.2089 43.0886 25.137 42.8664 27.3245 48.1789 27.2399 48.0058 29.9899 52.8183 29.85 52.6146 33.1625 56.6771 32.8625 56.3978 37.5663 59.7036 35.8413 62.158 30.9682 58.7333 27.4466 54.4143 24.5872 49.4104 22.3184 43.9003 20.8898 37.9262 20.3803 31.8759 19.8803 25.9384 19.9161 26.1614 18.5411 20.4114 18.613 20.6336 16.4255 15.3211 16.5101 15.4942 13.7601 10.6817 13.9 10.8854 10.5875 6.82291 10.7802 7.01934 7.09272 3.89434 7.37507 4.0832 3.37507 2.0207 3.81221 2.16647-0.250287 1.47897ZM36.836 56.1892 43.75 63.5 33.753 64.6447Z" transform="matrix(-4.37114e-08 -1 -1 4.37114e-08 203.001 268.227)"/><path d="M201.021 267.839 201.745 263.561 203.854 259.275 207.047 255.35 211.117 251.871 215.944 248.936 221.278 246.724 227.001 245.293 232.806 244.783 238.494 244.283 238.261 244.322 243.761 242.947 243.536 243.023 248.661 240.835 248.483 240.925 253.108 238.175 252.9 238.325 256.775 235.012 256.506 235.314 259.618 230.693 262.106 232.369 258.88 237.16 254.752 240.688 249.931 243.555 244.604 245.829 238.874 247.261 233.069 247.771 227.381 248.271 227.614 248.232 222.114 249.607 222.325 249.538 217.2 251.663 217.404 251.559 212.779 254.371 212.975 254.23 209.1 257.542 209.289 257.349 206.289 261.036 206.471 260.752 204.533 264.69 204.667 264.278 203.979 268.34ZM256.12 231.437 263.375 224.465 264.6 234.452Z"/><path d="M213.5 91.3336C213.5 87.5595 216.56 84.5001 220.334 84.5001L307.667 84.5001C311.441 84.5001 314.5 87.5595 314.5 91.3336L314.5 118.667C314.5 122.441 311.441 125.5 307.667 125.5L220.334 125.5C216.56 125.5 213.5 122.441 213.5 118.667Z" stroke="#A5A5A5" stroke-width="0.666667" stroke-miterlimit="8" fill="url(#fill5)" fill-rule="evenodd"/><text font-family="Cambria Math,Cambria Math_MSFontService,sans-serif" font-weight="400" font-size="32" transform="translate(251.088 115)">…</text></g></svg>